<?xml version="1.0" encoding="UTF-8" standalone="no"?>
<!DOCTYPE svg PUBLIC "-//W3C//DTD SVG 1.1//EN"
 "http://www.w3.org/Graphics/SVG/1.1/DTD/svg11.dtd">
<!-- Generated by graphviz version 11.0.0 (20240428.1522)
 -->
<!-- Pages: 1 -->
<svg width="827pt" height="128pt"
 viewBox="0.00 0.00 827.00 128.00" xmlns="http://www.w3.org/2000/svg" xmlns:xlink="http://www.w3.org/1999/xlink">
<g id="graph0" class="graph" transform="scale(1 1) rotate(0) translate(4 124)">
<polygon fill="white" stroke="none" points="-4,4 -4,-124 823,-124 823,4 -4,4"/>
<!-- 1895106143360 -->
<g id="node1" class="node">
<title>1895106143360</title>
<polygon fill="none" stroke="black" points="0,-83.5 0,-119.5 186,-119.5 186,-83.5 0,-83.5"/>
<text text-anchor="middle" x="11.75" y="-96.2" font-family="Times New Roman,serif" font-size="14.00">b</text>
<polyline fill="none" stroke="black" points="23.5,-83.75 23.5,-119.5"/>
<text text-anchor="middle" x="63.75" y="-96.2" font-family="Times New Roman,serif" font-size="14.00">data 4.0000</text>
<polyline fill="none" stroke="black" points="104,-83.75 104,-119.5"/>
<text text-anchor="middle" x="145" y="-96.2" font-family="Times New Roman,serif" font-size="14.00">grad 0.0000</text>
</g>
<!-- 1895105704112* -->
<g id="node3" class="node">
<title>1895105704112*</title>
<ellipse fill="none" stroke="black" cx="249" cy="-73.5" rx="27" ry="18"/>
<text text-anchor="middle" x="249" y="-68.08" font-family="Times New Roman,serif" font-size="14.00">*</text>
</g>
<!-- 1895106143360&#45;&gt;1895105704112* -->
<g id="edge6" class="edge">
<title>1895106143360&#45;&gt;1895105704112*</title>
<path fill="none" stroke="black" d="M186.25,-84.73C195.1,-83.12 203.67,-81.56 211.46,-80.14"/>
<polygon fill="black" stroke="black" points="211.93,-83.62 221.15,-78.38 210.68,-76.73 211.93,-83.62"/>
</g>
<!-- 1895105704112 -->
<g id="node2" class="node">
<title>1895105704112</title>
<polygon fill="none" stroke="black" points="313.5,-55.5 313.5,-91.5 502.5,-91.5 502.5,-55.5 313.5,-55.5"/>
<text text-anchor="middle" x="323.38" y="-68.2" font-family="Times New Roman,serif" font-size="14.00"> </text>
<polyline fill="none" stroke="black" points="333.25,-55.75 333.25,-91.5"/>
<text text-anchor="middle" x="376.88" y="-68.2" font-family="Times New Roman,serif" font-size="14.00">data 12.0000</text>
<polyline fill="none" stroke="black" points="420.5,-55.75 420.5,-91.5"/>
<text text-anchor="middle" x="461.5" y="-68.2" font-family="Times New Roman,serif" font-size="14.00">grad 0.0000</text>
</g>
<!-- 1894572596960+ -->
<g id="node5" class="node">
<title>1894572596960+</title>
<ellipse fill="none" stroke="black" cx="567" cy="-45.5" rx="27" ry="18"/>
<text text-anchor="middle" x="567" y="-40.08" font-family="Times New Roman,serif" font-size="14.00">+</text>
</g>
<!-- 1895105704112&#45;&gt;1894572596960+ -->
<g id="edge4" class="edge">
<title>1895105704112&#45;&gt;1894572596960+</title>
<path fill="none" stroke="black" d="M502.59,-56.81C512.06,-55.12 521.22,-53.49 529.49,-52.01"/>
<polygon fill="black" stroke="black" points="529.82,-55.51 539.05,-50.31 528.59,-48.62 529.82,-55.51"/>
</g>
<!-- 1895105704112*&#45;&gt;1895105704112 -->
<g id="edge1" class="edge">
<title>1895105704112*&#45;&gt;1895105704112</title>
<path fill="none" stroke="black" d="M276.28,-73.5C283.79,-73.5 292.46,-73.5 301.7,-73.5"/>
<polygon fill="black" stroke="black" points="301.7,-77 311.7,-73.5 301.7,-70 301.7,-77"/>
</g>
<!-- 1894572596960 -->
<g id="node4" class="node">
<title>1894572596960</title>
<polygon fill="none" stroke="black" points="630,-27.5 630,-63.5 819,-63.5 819,-27.5 630,-27.5"/>
<text text-anchor="middle" x="639.88" y="-40.2" font-family="Times New Roman,serif" font-size="14.00"> </text>
<polyline fill="none" stroke="black" points="649.75,-27.75 649.75,-63.5"/>
<text text-anchor="middle" x="693.38" y="-40.2" font-family="Times New Roman,serif" font-size="14.00">data 22.0000</text>
<polyline fill="none" stroke="black" points="737,-27.75 737,-63.5"/>
<text text-anchor="middle" x="778" y="-40.2" font-family="Times New Roman,serif" font-size="14.00">grad 0.0000</text>
</g>
<!-- 1894572596960+&#45;&gt;1894572596960 -->
<g id="edge2" class="edge">
<title>1894572596960+&#45;&gt;1894572596960</title>
<path fill="none" stroke="black" d="M594.38,-45.5C601.51,-45.5 609.68,-45.5 618.37,-45.5"/>
<polygon fill="black" stroke="black" points="618.11,-49 628.11,-45.5 618.11,-42 618.11,-49"/>
</g>
<!-- 1895106442160 -->
<g id="node6" class="node">
<title>1895106442160</title>
<polygon fill="none" stroke="black" points="0.75,-28.5 0.75,-64.5 185.25,-64.5 185.25,-28.5 0.75,-28.5"/>
<text text-anchor="middle" x="11.75" y="-41.2" font-family="Times New Roman,serif" font-size="14.00">a</text>
<polyline fill="none" stroke="black" points="22.75,-28.75 22.75,-64.5"/>
<text text-anchor="middle" x="63" y="-41.2" font-family="Times New Roman,serif" font-size="14.00">data 3.0000</text>
<polyline fill="none" stroke="black" points="103.25,-28.75 103.25,-64.5"/>
<text text-anchor="middle" x="144.25" y="-41.2" font-family="Times New Roman,serif" font-size="14.00">grad 0.0000</text>
</g>
<!-- 1895106442160&#45;&gt;1895105704112* -->
<g id="edge5" class="edge">
<title>1895106442160&#45;&gt;1895105704112*</title>
<path fill="none" stroke="black" d="M185.36,-62.52C194.5,-64.12 203.36,-65.67 211.4,-67.08"/>
<polygon fill="black" stroke="black" points="210.58,-70.49 221.04,-68.77 211.79,-63.6 210.58,-70.49"/>
</g>
<!-- 1895098405312 -->
<g id="node7" class="node">
<title>1895098405312</title>
<polygon fill="none" stroke="black" points="312,-0.5 312,-36.5 504,-36.5 504,-0.5 312,-0.5"/>
<text text-anchor="middle" x="323.38" y="-13.2" font-family="Times New Roman,serif" font-size="14.00">c</text>
<polyline fill="none" stroke="black" points="334.75,-0.75 334.75,-36.5"/>
<text text-anchor="middle" x="378.38" y="-13.2" font-family="Times New Roman,serif" font-size="14.00">data 10.0000</text>
<polyline fill="none" stroke="black" points="422,-0.75 422,-36.5"/>
<text text-anchor="middle" x="463" y="-13.2" font-family="Times New Roman,serif" font-size="14.00">grad 0.0000</text>
</g>
<!-- 1895098405312&#45;&gt;1894572596960+ -->
<g id="edge3" class="edge">
<title>1895098405312&#45;&gt;1894572596960+</title>
<path fill="none" stroke="black" d="M504.4,-34.91C513.08,-36.4 521.47,-37.84 529.12,-39.16"/>
<polygon fill="black" stroke="black" points="528.53,-42.61 538.97,-40.85 529.71,-35.71 528.53,-42.61"/>
</g>
</g>
</svg>
