<?xml version="1.0" encoding="UTF-8" standalone="no"?>
<!DOCTYPE svg PUBLIC "-//W3C//DTD SVG 1.1//EN"
 "http://www.w3.org/Graphics/SVG/1.1/DTD/svg11.dtd">
<!-- Generated by graphviz version 11.0.0 (20240428.1522)
 -->
<!-- Pages: 1 -->
<svg width="1539pt" height="210pt"
 viewBox="0.00 0.00 1538.75 210.00" xmlns="http://www.w3.org/2000/svg" xmlns:xlink="http://www.w3.org/1999/xlink">
<g id="graph0" class="graph" transform="scale(1 1) rotate(0) translate(4 206)">
<polygon fill="white" stroke="none" points="-4,4 -4,-206 1534.75,-206 1534.75,4 -4,4"/>
<!-- 2668022390784 -->
<g id="node1" class="node">
<title>2668022390784</title>
<polygon fill="none" stroke="black" points="1344.75,-109.5 1344.75,-145.5 1530.75,-145.5 1530.75,-109.5 1344.75,-109.5"/>
<text text-anchor="middle" x="1356.5" y="-122.2" font-family="Times New Roman,serif" font-size="14.00">o</text>
<polyline fill="none" stroke="black" points="1368.25,-109.75 1368.25,-145.5"/>
<text text-anchor="middle" x="1408.5" y="-122.2" font-family="Times New Roman,serif" font-size="14.00">data 0.7071</text>
<polyline fill="none" stroke="black" points="1448.75,-109.75 1448.75,-145.5"/>
<text text-anchor="middle" x="1489.75" y="-122.2" font-family="Times New Roman,serif" font-size="14.00">grad 0.0000</text>
</g>
<!-- 2668022390784tanh -->
<g id="node2" class="node">
<title>2668022390784tanh</title>
<ellipse fill="none" stroke="black" cx="1281.75" cy="-127.5" rx="27" ry="18"/>
<text text-anchor="middle" x="1281.75" y="-122.08" font-family="Times New Roman,serif" font-size="14.00">tanh</text>
</g>
<!-- 2668022390784tanh&#45;&gt;2668022390784 -->
<g id="edge1" class="edge">
<title>2668022390784tanh&#45;&gt;2668022390784</title>
<path fill="none" stroke="black" d="M1309.22,-127.5C1316.36,-127.5 1324.53,-127.5 1333.21,-127.5"/>
<polygon fill="black" stroke="black" points="1332.94,-131 1342.94,-127.5 1332.94,-124 1332.94,-131"/>
</g>
<!-- 2668023008768 -->
<g id="node3" class="node">
<title>2668023008768</title>
<polygon fill="none" stroke="black" points="693,-137.5 693,-173.5 879,-173.5 879,-137.5 693,-137.5"/>
<text text-anchor="middle" x="704.75" y="-150.2" font-family="Times New Roman,serif" font-size="14.00">b</text>
<polyline fill="none" stroke="black" points="716.5,-137.75 716.5,-173.5"/>
<text text-anchor="middle" x="756.75" y="-150.2" font-family="Times New Roman,serif" font-size="14.00">data 6.8814</text>
<polyline fill="none" stroke="black" points="797,-137.75 797,-173.5"/>
<text text-anchor="middle" x="838" y="-150.2" font-family="Times New Roman,serif" font-size="14.00">grad 0.0000</text>
</g>
<!-- 2668022382768+ -->
<g id="node6" class="node">
<title>2668022382768+</title>
<ellipse fill="none" stroke="black" cx="970.5" cy="-127.5" rx="27" ry="18"/>
<text text-anchor="middle" x="970.5" y="-122.08" font-family="Times New Roman,serif" font-size="14.00">+</text>
</g>
<!-- 2668023008768&#45;&gt;2668022382768+ -->
<g id="edge6" class="edge">
<title>2668023008768&#45;&gt;2668022382768+</title>
<path fill="none" stroke="black" d="M879.32,-141.34C898.2,-138.44 917.02,-135.55 932.55,-133.17"/>
<polygon fill="black" stroke="black" points="932.87,-136.66 942.23,-131.68 931.81,-129.74 932.87,-136.66"/>
</g>
<!-- 2668022050368 -->
<g id="node4" class="node">
<title>2668022050368</title>
<polygon fill="none" stroke="black" points="3.75,-55.5 3.75,-91.5 195.75,-91.5 195.75,-55.5 3.75,-55.5"/>
<text text-anchor="middle" x="18.5" y="-68.2" font-family="Times New Roman,serif" font-size="14.00">x1</text>
<polyline fill="none" stroke="black" points="33.25,-55.75 33.25,-91.5"/>
<text text-anchor="middle" x="73.5" y="-68.2" font-family="Times New Roman,serif" font-size="14.00">data 2.0000</text>
<polyline fill="none" stroke="black" points="113.75,-55.75 113.75,-91.5"/>
<text text-anchor="middle" x="154.75" y="-68.2" font-family="Times New Roman,serif" font-size="14.00">grad 0.0000</text>
</g>
<!-- 2668022383056* -->
<g id="node13" class="node">
<title>2668022383056*</title>
<ellipse fill="none" stroke="black" cx="262.5" cy="-73.5" rx="27" ry="18"/>
<text text-anchor="middle" x="262.5" y="-68.08" font-family="Times New Roman,serif" font-size="14.00">*</text>
</g>
<!-- 2668022050368&#45;&gt;2668022383056* -->
<g id="edge14" class="edge">
<title>2668022050368&#45;&gt;2668022383056*</title>
<path fill="none" stroke="black" d="M196.12,-73.5C205.86,-73.5 215.3,-73.5 223.83,-73.5"/>
<polygon fill="black" stroke="black" points="223.71,-77 233.71,-73.5 223.71,-70 223.71,-77"/>
</g>
<!-- 2668022382768 -->
<g id="node5" class="node">
<title>2668022382768</title>
<polygon fill="none" stroke="black" points="1033.5,-109.5 1033.5,-145.5 1218.75,-145.5 1218.75,-109.5 1033.5,-109.5"/>
<text text-anchor="middle" x="1044.88" y="-122.2" font-family="Times New Roman,serif" font-size="14.00">n</text>
<polyline fill="none" stroke="black" points="1056.25,-109.75 1056.25,-145.5"/>
<text text-anchor="middle" x="1096.5" y="-122.2" font-family="Times New Roman,serif" font-size="14.00">data 0.8814</text>
<polyline fill="none" stroke="black" points="1136.75,-109.75 1136.75,-145.5"/>
<text text-anchor="middle" x="1177.75" y="-122.2" font-family="Times New Roman,serif" font-size="14.00">grad 0.0000</text>
</g>
<!-- 2668022382768&#45;&gt;2668022390784tanh -->
<g id="edge10" class="edge">
<title>2668022382768&#45;&gt;2668022390784tanh</title>
<path fill="none" stroke="black" d="M1219.15,-127.5C1227.52,-127.5 1235.64,-127.5 1243.09,-127.5"/>
<polygon fill="black" stroke="black" points="1243.03,-131 1253.03,-127.5 1243.03,-124 1243.03,-131"/>
</g>
<!-- 2668022382768+&#45;&gt;2668022382768 -->
<g id="edge2" class="edge">
<title>2668022382768+&#45;&gt;2668022382768</title>
<path fill="none" stroke="black" d="M997.91,-127.5C1004.95,-127.5 1013,-127.5 1021.55,-127.5"/>
<polygon fill="black" stroke="black" points="1021.54,-131 1031.54,-127.5 1021.54,-124 1021.54,-131"/>
</g>
<!-- 2668022987472 -->
<g id="node7" class="node">
<title>2668022987472</title>
<polygon fill="none" stroke="black" points="0,-0.5 0,-36.5 199.5,-36.5 199.5,-0.5 0,-0.5"/>
<text text-anchor="middle" x="16.25" y="-13.2" font-family="Times New Roman,serif" font-size="14.00">w1</text>
<polyline fill="none" stroke="black" points="32.5,-0.75 32.5,-36.5"/>
<text text-anchor="middle" x="75" y="-13.2" font-family="Times New Roman,serif" font-size="14.00">data &#45;3.0000</text>
<polyline fill="none" stroke="black" points="117.5,-0.75 117.5,-36.5"/>
<text text-anchor="middle" x="158.5" y="-13.2" font-family="Times New Roman,serif" font-size="14.00">grad 0.0000</text>
</g>
<!-- 2668022987472&#45;&gt;2668022383056* -->
<g id="edge13" class="edge">
<title>2668022987472&#45;&gt;2668022383056*</title>
<path fill="none" stroke="black" d="M170.45,-36.99C180.27,-39.97 190.19,-43.17 199.5,-46.5 209.46,-50.06 220.09,-54.46 229.68,-58.67"/>
<polygon fill="black" stroke="black" points="228.04,-61.77 238.6,-62.66 230.9,-55.38 228.04,-61.77"/>
</g>
<!-- 2668022390112 -->
<g id="node8" class="node">
<title>2668022390112</title>
<polygon fill="none" stroke="black" points="664.5,-82.5 664.5,-118.5 907.5,-118.5 907.5,-82.5 664.5,-82.5"/>
<text text-anchor="middle" x="702.5" y="-95.2" font-family="Times New Roman,serif" font-size="14.00">x1w1x2w2</text>
<polyline fill="none" stroke="black" points="740.5,-82.75 740.5,-118.5"/>
<text text-anchor="middle" x="783" y="-95.2" font-family="Times New Roman,serif" font-size="14.00">data &#45;6.0000</text>
<polyline fill="none" stroke="black" points="825.5,-82.75 825.5,-118.5"/>
<text text-anchor="middle" x="866.5" y="-95.2" font-family="Times New Roman,serif" font-size="14.00">grad 0.0000</text>
</g>
<!-- 2668022390112&#45;&gt;2668022382768+ -->
<g id="edge8" class="edge">
<title>2668022390112&#45;&gt;2668022382768+</title>
<path fill="none" stroke="black" d="M907.97,-118.4C916.73,-119.69 925.07,-120.93 932.64,-122.05"/>
<polygon fill="black" stroke="black" points="931.92,-125.48 942.32,-123.48 932.94,-118.55 931.92,-125.48"/>
</g>
<!-- 2668022390112+ -->
<g id="node9" class="node">
<title>2668022390112+</title>
<ellipse fill="none" stroke="black" cx="601.5" cy="-100.5" rx="27" ry="18"/>
<text text-anchor="middle" x="601.5" y="-95.08" font-family="Times New Roman,serif" font-size="14.00">+</text>
</g>
<!-- 2668022390112+&#45;&gt;2668022390112 -->
<g id="edge3" class="edge">
<title>2668022390112+&#45;&gt;2668022390112</title>
<path fill="none" stroke="black" d="M628.65,-100.5C635.72,-100.5 643.87,-100.5 652.67,-100.5"/>
<polygon fill="black" stroke="black" points="652.62,-104 662.62,-100.5 652.62,-97 652.62,-104"/>
</g>
<!-- 2668022393712 -->
<g id="node10" class="node">
<title>2668022393712</title>
<polygon fill="none" stroke="black" points="327.75,-110.5 327.75,-146.5 536.25,-146.5 536.25,-110.5 327.75,-110.5"/>
<text text-anchor="middle" x="350.75" y="-123.2" font-family="Times New Roman,serif" font-size="14.00">x2w2</text>
<polyline fill="none" stroke="black" points="373.75,-110.75 373.75,-146.5"/>
<text text-anchor="middle" x="414" y="-123.2" font-family="Times New Roman,serif" font-size="14.00">data 0.0000</text>
<polyline fill="none" stroke="black" points="454.25,-110.75 454.25,-146.5"/>
<text text-anchor="middle" x="495.25" y="-123.2" font-family="Times New Roman,serif" font-size="14.00">grad 0.0000</text>
</g>
<!-- 2668022393712&#45;&gt;2668022390112+ -->
<g id="edge12" class="edge">
<title>2668022393712&#45;&gt;2668022390112+</title>
<path fill="none" stroke="black" d="M536.7,-111.17C546.14,-109.59 555.22,-108.07 563.43,-106.7"/>
<polygon fill="black" stroke="black" points="563.98,-110.15 573.27,-105.05 562.83,-103.25 563.98,-110.15"/>
</g>
<!-- 2668022393712* -->
<g id="node11" class="node">
<title>2668022393712*</title>
<ellipse fill="none" stroke="black" cx="262.5" cy="-128.5" rx="27" ry="18"/>
<text text-anchor="middle" x="262.5" y="-123.08" font-family="Times New Roman,serif" font-size="14.00">*</text>
</g>
<!-- 2668022393712*&#45;&gt;2668022393712 -->
<g id="edge4" class="edge">
<title>2668022393712*&#45;&gt;2668022393712</title>
<path fill="none" stroke="black" d="M289.67,-128.5C297.34,-128.5 306.26,-128.5 315.82,-128.5"/>
<polygon fill="black" stroke="black" points="315.79,-132 325.79,-128.5 315.79,-125 315.79,-132"/>
</g>
<!-- 2668022383056 -->
<g id="node12" class="node">
<title>2668022383056</title>
<polygon fill="none" stroke="black" points="325.5,-55.5 325.5,-91.5 538.5,-91.5 538.5,-55.5 325.5,-55.5"/>
<text text-anchor="middle" x="348.5" y="-68.2" font-family="Times New Roman,serif" font-size="14.00">x1w1</text>
<polyline fill="none" stroke="black" points="371.5,-55.75 371.5,-91.5"/>
<text text-anchor="middle" x="414" y="-68.2" font-family="Times New Roman,serif" font-size="14.00">data &#45;6.0000</text>
<polyline fill="none" stroke="black" points="456.5,-55.75 456.5,-91.5"/>
<text text-anchor="middle" x="497.5" y="-68.2" font-family="Times New Roman,serif" font-size="14.00">grad 0.0000</text>
</g>
<!-- 2668022383056&#45;&gt;2668022390112+ -->
<g id="edge9" class="edge">
<title>2668022383056&#45;&gt;2668022390112+</title>
<path fill="none" stroke="black" d="M538.61,-90.52C547.35,-91.93 555.75,-93.29 563.4,-94.52"/>
<polygon fill="black" stroke="black" points="562.8,-97.97 573.23,-96.1 563.91,-91.06 562.8,-97.97"/>
</g>
<!-- 2668022383056*&#45;&gt;2668022383056 -->
<g id="edge5" class="edge">
<title>2668022383056*&#45;&gt;2668022383056</title>
<path fill="none" stroke="black" d="M289.67,-73.5C296.79,-73.5 304.98,-73.5 313.76,-73.5"/>
<polygon fill="black" stroke="black" points="313.64,-77 323.64,-73.5 313.64,-70 313.64,-77"/>
</g>
<!-- 2668023006176 -->
<g id="node14" class="node">
<title>2668023006176</title>
<polygon fill="none" stroke="black" points="2.25,-165.5 2.25,-201.5 197.25,-201.5 197.25,-165.5 2.25,-165.5"/>
<text text-anchor="middle" x="18.5" y="-178.2" font-family="Times New Roman,serif" font-size="14.00">w2</text>
<polyline fill="none" stroke="black" points="34.75,-165.75 34.75,-201.5"/>
<text text-anchor="middle" x="75" y="-178.2" font-family="Times New Roman,serif" font-size="14.00">data 1.0000</text>
<polyline fill="none" stroke="black" points="115.25,-165.75 115.25,-201.5"/>
<text text-anchor="middle" x="156.25" y="-178.2" font-family="Times New Roman,serif" font-size="14.00">grad 0.0000</text>
</g>
<!-- 2668023006176&#45;&gt;2668022393712* -->
<g id="edge7" class="edge">
<title>2668023006176&#45;&gt;2668022393712*</title>
<path fill="none" stroke="black" d="M173.43,-165.03C182.28,-162.37 191.14,-159.51 199.5,-156.5 209.59,-152.87 220.33,-148.29 229.98,-143.89"/>
<polygon fill="black" stroke="black" points="231.37,-147.1 238.95,-139.7 228.41,-140.76 231.37,-147.1"/>
</g>
<!-- 2668021894128 -->
<g id="node15" class="node">
<title>2668021894128</title>
<polygon fill="none" stroke="black" points="3.75,-110.5 3.75,-146.5 195.75,-146.5 195.75,-110.5 3.75,-110.5"/>
<text text-anchor="middle" x="18.5" y="-123.2" font-family="Times New Roman,serif" font-size="14.00">x2</text>
<polyline fill="none" stroke="black" points="33.25,-110.75 33.25,-146.5"/>
<text text-anchor="middle" x="73.5" y="-123.2" font-family="Times New Roman,serif" font-size="14.00">data 0.0000</text>
<polyline fill="none" stroke="black" points="113.75,-110.75 113.75,-146.5"/>
<text text-anchor="middle" x="154.75" y="-123.2" font-family="Times New Roman,serif" font-size="14.00">grad 0.0000</text>
</g>
<!-- 2668021894128&#45;&gt;2668022393712* -->
<g id="edge11" class="edge">
<title>2668021894128&#45;&gt;2668022393712*</title>
<path fill="none" stroke="black" d="M196.12,-128.5C205.86,-128.5 215.3,-128.5 223.83,-128.5"/>
<polygon fill="black" stroke="black" points="223.71,-132 233.71,-128.5 223.71,-125 223.71,-132"/>
</g>
</g>
</svg>
