<?xml version="1.0" encoding="UTF-8" standalone="no"?>
<!DOCTYPE svg PUBLIC "-//W3C//DTD SVG 1.1//EN"
 "http://www.w3.org/Graphics/SVG/1.1/DTD/svg11.dtd">
<!-- Generated by graphviz version 11.0.0 (20240428.1522)
 -->
<!-- Pages: 1 -->
<svg width="2909pt" height="236pt"
 viewBox="0.00 0.00 2909.00 236.00" xmlns="http://www.w3.org/2000/svg" xmlns:xlink="http://www.w3.org/1999/xlink">
<g id="graph0" class="graph" transform="scale(1 1) rotate(0) translate(4 232)">
<polygon fill="white" stroke="none" points="-4,4 -4,-232 2905,-232 2905,4 -4,4"/>
<!-- 1670135626256 -->
<g id="node1" class="node">
<title>1670135626256</title>
<polygon fill="none" stroke="black" points="1033.5,-109.5 1033.5,-145.5 1218.75,-145.5 1218.75,-109.5 1033.5,-109.5"/>
<text text-anchor="middle" x="1044.88" y="-122.2" font-family="Times New Roman,serif" font-size="14.00">n</text>
<polyline fill="none" stroke="black" points="1056.25,-109.75 1056.25,-145.5"/>
<text text-anchor="middle" x="1096.5" y="-122.2" font-family="Times New Roman,serif" font-size="14.00">data 0.8814</text>
<polyline fill="none" stroke="black" points="1136.75,-109.75 1136.75,-145.5"/>
<text text-anchor="middle" x="1177.75" y="-122.2" font-family="Times New Roman,serif" font-size="14.00">grad 0.5000</text>
</g>
<!-- 1670135623760* -->
<g id="node5" class="node">
<title>1670135623760*</title>
<ellipse fill="none" stroke="black" cx="1281.75" cy="-154.5" rx="27" ry="18"/>
<text text-anchor="middle" x="1281.75" y="-149.07" font-family="Times New Roman,serif" font-size="14.00">*</text>
</g>
<!-- 1670135626256&#45;&gt;1670135623760* -->
<g id="edge14" class="edge">
<title>1670135626256&#45;&gt;1670135623760*</title>
<path fill="none" stroke="black" d="M1219.15,-143.67C1227.89,-145.21 1236.36,-146.7 1244.08,-148.05"/>
<polygon fill="black" stroke="black" points="1243.2,-151.45 1253.66,-149.74 1244.41,-144.56 1243.2,-151.45"/>
</g>
<!-- 1670135626256+ -->
<g id="node2" class="node">
<title>1670135626256+</title>
<ellipse fill="none" stroke="black" cx="970.5" cy="-127.5" rx="27" ry="18"/>
<text text-anchor="middle" x="970.5" y="-122.08" font-family="Times New Roman,serif" font-size="14.00">+</text>
</g>
<!-- 1670135626256+&#45;&gt;1670135626256 -->
<g id="edge1" class="edge">
<title>1670135626256+&#45;&gt;1670135626256</title>
<path fill="none" stroke="black" d="M997.91,-127.5C1004.95,-127.5 1013,-127.5 1021.55,-127.5"/>
<polygon fill="black" stroke="black" points="1021.54,-131 1031.54,-127.5 1021.54,-124 1021.54,-131"/>
</g>
<!-- 1670135619632 -->
<g id="node3" class="node">
<title>1670135619632</title>
<polygon fill="none" stroke="black" points="1035,-164.5 1035,-200.5 1217.25,-200.5 1217.25,-164.5 1035,-164.5"/>
<text text-anchor="middle" x="1044.88" y="-177.2" font-family="Times New Roman,serif" font-size="14.00"> </text>
<polyline fill="none" stroke="black" points="1054.75,-164.75 1054.75,-200.5"/>
<text text-anchor="middle" x="1095" y="-177.2" font-family="Times New Roman,serif" font-size="14.00">data 2.0000</text>
<polyline fill="none" stroke="black" points="1135.25,-164.75 1135.25,-200.5"/>
<text text-anchor="middle" x="1176.25" y="-177.2" font-family="Times New Roman,serif" font-size="14.00">grad 0.2203</text>
</g>
<!-- 1670135619632&#45;&gt;1670135623760* -->
<g id="edge28" class="edge">
<title>1670135619632&#45;&gt;1670135623760*</title>
<path fill="none" stroke="black" d="M1217.38,-166.05C1226.79,-164.34 1235.92,-162.67 1244.19,-161.16"/>
<polygon fill="black" stroke="black" points="1244.54,-164.66 1253.75,-159.42 1243.28,-157.77 1244.54,-164.66"/>
</g>
<!-- 1670135623760 -->
<g id="node4" class="node">
<title>1670135623760</title>
<polygon fill="none" stroke="black" points="1344.75,-136.5 1344.75,-172.5 1527,-172.5 1527,-136.5 1344.75,-136.5"/>
<text text-anchor="middle" x="1354.62" y="-149.2" font-family="Times New Roman,serif" font-size="14.00"> </text>
<polyline fill="none" stroke="black" points="1364.5,-136.75 1364.5,-172.5"/>
<text text-anchor="middle" x="1404.75" y="-149.2" font-family="Times New Roman,serif" font-size="14.00">data 1.7627</text>
<polyline fill="none" stroke="black" points="1445,-136.75 1445,-172.5"/>
<text text-anchor="middle" x="1486" y="-149.2" font-family="Times New Roman,serif" font-size="14.00">grad 0.2500</text>
</g>
<!-- 1670135611664exp -->
<g id="node17" class="node">
<title>1670135611664exp</title>
<ellipse fill="none" stroke="black" cx="1590" cy="-154.5" rx="27" ry="18"/>
<text text-anchor="middle" x="1590" y="-149.07" font-family="Times New Roman,serif" font-size="14.00">exp</text>
</g>
<!-- 1670135623760&#45;&gt;1670135611664exp -->
<g id="edge15" class="edge">
<title>1670135623760&#45;&gt;1670135611664exp</title>
<path fill="none" stroke="black" d="M1527.12,-154.5C1535.51,-154.5 1543.65,-154.5 1551.12,-154.5"/>
<polygon fill="black" stroke="black" points="1551.12,-158 1561.12,-154.5 1551.12,-151 1551.12,-158"/>
</g>
<!-- 1670135623760*&#45;&gt;1670135623760 -->
<g id="edge2" class="edge">
<title>1670135623760*&#45;&gt;1670135623760</title>
<path fill="none" stroke="black" d="M1309.25,-154.5C1316.29,-154.5 1324.34,-154.5 1332.88,-154.5"/>
<polygon fill="black" stroke="black" points="1332.84,-158 1342.84,-154.5 1332.84,-151 1332.84,-158"/>
</g>
<!-- 1670135615600 -->
<g id="node6" class="node">
<title>1670135615600</title>
<polygon fill="none" stroke="black" points="1965.75,-108.5 1965.75,-144.5 2152.5,-144.5 2152.5,-108.5 1965.75,-108.5"/>
<text text-anchor="middle" x="1975.62" y="-121.2" font-family="Times New Roman,serif" font-size="14.00"> </text>
<polyline fill="none" stroke="black" points="1985.5,-108.75 1985.5,-144.5"/>
<text text-anchor="middle" x="2025.75" y="-121.2" font-family="Times New Roman,serif" font-size="14.00">data 6.8284</text>
<polyline fill="none" stroke="black" points="2066,-108.75 2066,-144.5"/>
<text text-anchor="middle" x="2109.25" y="-121.2" font-family="Times New Roman,serif" font-size="14.00">grad &#45;0.1036</text>
</g>
<!-- 1670135619440**&#45;1 -->
<g id="node22" class="node">
<title>1670135619440**&#45;1</title>
<ellipse fill="none" stroke="black" cx="2279.62" cy="-126.5" rx="27.11" ry="18"/>
<text text-anchor="middle" x="2279.62" y="-121.08" font-family="Times New Roman,serif" font-size="14.00">**&#45;1</text>
</g>
<!-- 1670135615600&#45;&gt;1670135619440**&#45;1 -->
<g id="edge17" class="edge">
<title>1670135615600&#45;&gt;1670135619440**&#45;1</title>
<path fill="none" stroke="black" d="M2152.79,-126.5C2183.78,-126.5 2216.58,-126.5 2240.93,-126.5"/>
<polygon fill="black" stroke="black" points="2240.64,-130 2250.64,-126.5 2240.64,-123 2240.64,-130"/>
</g>
<!-- 1670135615600+ -->
<g id="node7" class="node">
<title>1670135615600+</title>
<ellipse fill="none" stroke="black" cx="1902.75" cy="-126.5" rx="27" ry="18"/>
<text text-anchor="middle" x="1902.75" y="-121.08" font-family="Times New Roman,serif" font-size="14.00">+</text>
</g>
<!-- 1670135615600+&#45;&gt;1670135615600 -->
<g id="edge3" class="edge">
<title>1670135615600+&#45;&gt;1670135615600</title>
<path fill="none" stroke="black" d="M1929.94,-126.5C1937.07,-126.5 1945.27,-126.5 1953.98,-126.5"/>
<polygon fill="black" stroke="black" points="1953.75,-130 1963.75,-126.5 1953.75,-123 1953.75,-130"/>
</g>
<!-- 1670135627408 -->
<g id="node8" class="node">
<title>1670135627408</title>
<polygon fill="none" stroke="black" points="2715,-135.5 2715,-171.5 2901,-171.5 2901,-135.5 2715,-135.5"/>
<text text-anchor="middle" x="2726.75" y="-148.2" font-family="Times New Roman,serif" font-size="14.00">o</text>
<polyline fill="none" stroke="black" points="2738.5,-135.75 2738.5,-171.5"/>
<text text-anchor="middle" x="2778.75" y="-148.2" font-family="Times New Roman,serif" font-size="14.00">data 0.7071</text>
<polyline fill="none" stroke="black" points="2819,-135.75 2819,-171.5"/>
<text text-anchor="middle" x="2860" y="-148.2" font-family="Times New Roman,serif" font-size="14.00">grad 1.0000</text>
</g>
<!-- 1670135627408* -->
<g id="node9" class="node">
<title>1670135627408*</title>
<ellipse fill="none" stroke="black" cx="2652" cy="-153.5" rx="27" ry="18"/>
<text text-anchor="middle" x="2652" y="-148.07" font-family="Times New Roman,serif" font-size="14.00">*</text>
</g>
<!-- 1670135627408*&#45;&gt;1670135627408 -->
<g id="edge4" class="edge">
<title>1670135627408*&#45;&gt;1670135627408</title>
<path fill="none" stroke="black" d="M2679.47,-153.5C2686.61,-153.5 2694.78,-153.5 2703.46,-153.5"/>
<polygon fill="black" stroke="black" points="2703.19,-157 2713.19,-153.5 2703.19,-150 2703.19,-157"/>
</g>
<!-- 1670135612576 -->
<g id="node10" class="node">
<title>1670135612576</title>
<polygon fill="none" stroke="black" points="327.75,-110.5 327.75,-146.5 536.25,-146.5 536.25,-110.5 327.75,-110.5"/>
<text text-anchor="middle" x="350.75" y="-123.2" font-family="Times New Roman,serif" font-size="14.00">x2w2</text>
<polyline fill="none" stroke="black" points="373.75,-110.75 373.75,-146.5"/>
<text text-anchor="middle" x="414" y="-123.2" font-family="Times New Roman,serif" font-size="14.00">data 0.0000</text>
<polyline fill="none" stroke="black" points="454.25,-110.75 454.25,-146.5"/>
<text text-anchor="middle" x="495.25" y="-123.2" font-family="Times New Roman,serif" font-size="14.00">grad 0.5000</text>
</g>
<!-- 1670135627168+ -->
<g id="node24" class="node">
<title>1670135627168+</title>
<ellipse fill="none" stroke="black" cx="601.5" cy="-100.5" rx="27" ry="18"/>
<text text-anchor="middle" x="601.5" y="-95.08" font-family="Times New Roman,serif" font-size="14.00">+</text>
</g>
<!-- 1670135612576&#45;&gt;1670135627168+ -->
<g id="edge13" class="edge">
<title>1670135612576&#45;&gt;1670135627168+</title>
<path fill="none" stroke="black" d="M536.7,-111.17C546.14,-109.59 555.22,-108.07 563.43,-106.7"/>
<polygon fill="black" stroke="black" points="563.98,-110.15 573.27,-105.05 562.83,-103.25 563.98,-110.15"/>
</g>
<!-- 1670135612576* -->
<g id="node11" class="node">
<title>1670135612576*</title>
<ellipse fill="none" stroke="black" cx="262.5" cy="-128.5" rx="27" ry="18"/>
<text text-anchor="middle" x="262.5" y="-123.08" font-family="Times New Roman,serif" font-size="14.00">*</text>
</g>
<!-- 1670135612576*&#45;&gt;1670135612576 -->
<g id="edge5" class="edge">
<title>1670135612576*&#45;&gt;1670135612576</title>
<path fill="none" stroke="black" d="M289.67,-128.5C297.34,-128.5 306.26,-128.5 315.82,-128.5"/>
<polygon fill="black" stroke="black" points="315.79,-132 325.79,-128.5 315.79,-125 315.79,-132"/>
</g>
<!-- 1670135616176 -->
<g id="node12" class="node">
<title>1670135616176</title>
<polygon fill="none" stroke="black" points="325.5,-55.5 325.5,-91.5 538.5,-91.5 538.5,-55.5 325.5,-55.5"/>
<text text-anchor="middle" x="348.5" y="-68.2" font-family="Times New Roman,serif" font-size="14.00">x1w1</text>
<polyline fill="none" stroke="black" points="371.5,-55.75 371.5,-91.5"/>
<text text-anchor="middle" x="414" y="-68.2" font-family="Times New Roman,serif" font-size="14.00">data &#45;6.0000</text>
<polyline fill="none" stroke="black" points="456.5,-55.75 456.5,-91.5"/>
<text text-anchor="middle" x="497.5" y="-68.2" font-family="Times New Roman,serif" font-size="14.00">grad 0.5000</text>
</g>
<!-- 1670135616176&#45;&gt;1670135627168+ -->
<g id="edge12" class="edge">
<title>1670135616176&#45;&gt;1670135627168+</title>
<path fill="none" stroke="black" d="M538.61,-90.52C547.35,-91.93 555.75,-93.29 563.4,-94.52"/>
<polygon fill="black" stroke="black" points="562.8,-97.97 573.23,-96.1 563.91,-91.06 562.8,-97.97"/>
</g>
<!-- 1670135616176* -->
<g id="node13" class="node">
<title>1670135616176*</title>
<ellipse fill="none" stroke="black" cx="262.5" cy="-73.5" rx="27" ry="18"/>
<text text-anchor="middle" x="262.5" y="-68.08" font-family="Times New Roman,serif" font-size="14.00">*</text>
</g>
<!-- 1670135616176*&#45;&gt;1670135616176 -->
<g id="edge6" class="edge">
<title>1670135616176*&#45;&gt;1670135616176</title>
<path fill="none" stroke="black" d="M289.67,-73.5C296.79,-73.5 304.98,-73.5 313.76,-73.5"/>
<polygon fill="black" stroke="black" points="313.64,-77 323.64,-73.5 313.64,-70 313.64,-77"/>
</g>
<!-- 1670082193568 -->
<g id="node14" class="node">
<title>1670082193568</title>
<polygon fill="none" stroke="black" points="0,-55.5 0,-91.5 199.5,-91.5 199.5,-55.5 0,-55.5"/>
<text text-anchor="middle" x="16.25" y="-68.2" font-family="Times New Roman,serif" font-size="14.00">w1</text>
<polyline fill="none" stroke="black" points="32.5,-55.75 32.5,-91.5"/>
<text text-anchor="middle" x="75" y="-68.2" font-family="Times New Roman,serif" font-size="14.00">data &#45;3.0000</text>
<polyline fill="none" stroke="black" points="117.5,-55.75 117.5,-91.5"/>
<text text-anchor="middle" x="158.5" y="-68.2" font-family="Times New Roman,serif" font-size="14.00">grad 1.0000</text>
</g>
<!-- 1670082193568&#45;&gt;1670135616176* -->
<g id="edge20" class="edge">
<title>1670082193568&#45;&gt;1670135616176*</title>
<path fill="none" stroke="black" d="M199.81,-73.5C208.19,-73.5 216.28,-73.5 223.69,-73.5"/>
<polygon fill="black" stroke="black" points="223.58,-77 233.58,-73.5 223.58,-70 223.58,-77"/>
</g>
<!-- 1670081995760 -->
<g id="node15" class="node">
<title>1670081995760</title>
<polygon fill="none" stroke="black" points="1.5,-0.5 1.5,-36.5 198,-36.5 198,-0.5 1.5,-0.5"/>
<text text-anchor="middle" x="16.25" y="-13.2" font-family="Times New Roman,serif" font-size="14.00">x1</text>
<polyline fill="none" stroke="black" points="31,-0.75 31,-36.5"/>
<text text-anchor="middle" x="71.25" y="-13.2" font-family="Times New Roman,serif" font-size="14.00">data 2.0000</text>
<polyline fill="none" stroke="black" points="111.5,-0.75 111.5,-36.5"/>
<text text-anchor="middle" x="154.75" y="-13.2" font-family="Times New Roman,serif" font-size="14.00">grad &#45;1.5000</text>
</g>
<!-- 1670081995760&#45;&gt;1670135616176* -->
<g id="edge23" class="edge">
<title>1670081995760&#45;&gt;1670135616176*</title>
<path fill="none" stroke="black" d="M170.45,-36.99C180.27,-39.97 190.19,-43.17 199.5,-46.5 209.46,-50.06 220.09,-54.46 229.68,-58.67"/>
<polygon fill="black" stroke="black" points="228.04,-61.77 238.6,-62.66 230.9,-55.38 228.04,-61.77"/>
</g>
<!-- 1670135611664 -->
<g id="node16" class="node">
<title>1670135611664</title>
<polygon fill="none" stroke="black" points="1655.25,-136.5 1655.25,-172.5 1837.5,-172.5 1837.5,-136.5 1655.25,-136.5"/>
<text text-anchor="middle" x="1665.12" y="-149.2" font-family="Times New Roman,serif" font-size="14.00"> </text>
<polyline fill="none" stroke="black" points="1675,-136.75 1675,-172.5"/>
<text text-anchor="middle" x="1715.25" y="-149.2" font-family="Times New Roman,serif" font-size="14.00">data 5.8284</text>
<polyline fill="none" stroke="black" points="1755.5,-136.75 1755.5,-172.5"/>
<text text-anchor="middle" x="1796.5" y="-149.2" font-family="Times New Roman,serif" font-size="14.00">grad 0.0429</text>
</g>
<!-- 1670135611664&#45;&gt;1670135615600+ -->
<g id="edge24" class="edge">
<title>1670135611664&#45;&gt;1670135615600+</title>
<path fill="none" stroke="black" d="M1837.62,-138.13C1847.22,-136.39 1856.54,-134.7 1864.96,-133.17"/>
<polygon fill="black" stroke="black" points="1865.51,-136.63 1874.73,-131.4 1864.26,-129.74 1865.51,-136.63"/>
</g>
<!-- 1670135616464+ -->
<g id="node27" class="node">
<title>1670135616464+</title>
<ellipse fill="none" stroke="black" cx="1902.75" cy="-181.5" rx="27" ry="18"/>
<text text-anchor="middle" x="1902.75" y="-176.07" font-family="Times New Roman,serif" font-size="14.00">+</text>
</g>
<!-- 1670135611664&#45;&gt;1670135616464+ -->
<g id="edge27" class="edge">
<title>1670135611664&#45;&gt;1670135616464+</title>
<path fill="none" stroke="black" d="M1837.62,-170.28C1847.22,-171.96 1856.54,-173.59 1864.96,-175.07"/>
<polygon fill="black" stroke="black" points="1864.27,-178.5 1874.73,-176.77 1865.48,-171.6 1864.27,-178.5"/>
</g>
<!-- 1670135611664exp&#45;&gt;1670135611664 -->
<g id="edge7" class="edge">
<title>1670135611664exp&#45;&gt;1670135611664</title>
<path fill="none" stroke="black" d="M1617.19,-154.5C1624.92,-154.5 1633.88,-154.5 1643.41,-154.5"/>
<polygon fill="black" stroke="black" points="1643.3,-158 1653.3,-154.5 1643.3,-151 1643.3,-158"/>
</g>
<!-- 1670135615792 -->
<g id="node18" class="node">
<title>1670135615792</title>
<polygon fill="none" stroke="black" points="693,-137.5 693,-173.5 879,-173.5 879,-137.5 693,-137.5"/>
<text text-anchor="middle" x="704.75" y="-150.2" font-family="Times New Roman,serif" font-size="14.00">b</text>
<polyline fill="none" stroke="black" points="716.5,-137.75 716.5,-173.5"/>
<text text-anchor="middle" x="756.75" y="-150.2" font-family="Times New Roman,serif" font-size="14.00">data 6.8814</text>
<polyline fill="none" stroke="black" points="797,-137.75 797,-173.5"/>
<text text-anchor="middle" x="838" y="-150.2" font-family="Times New Roman,serif" font-size="14.00">grad 0.5000</text>
</g>
<!-- 1670135615792&#45;&gt;1670135626256+ -->
<g id="edge22" class="edge">
<title>1670135615792&#45;&gt;1670135626256+</title>
<path fill="none" stroke="black" d="M879.32,-141.34C898.2,-138.44 917.02,-135.55 932.55,-133.17"/>
<polygon fill="black" stroke="black" points="932.87,-136.66 942.23,-131.68 931.81,-129.74 932.87,-136.66"/>
</g>
<!-- 1670135617328 -->
<g id="node19" class="node">
<title>1670135617328</title>
<polygon fill="none" stroke="black" points="1653,-191.5 1653,-227.5 1839.75,-227.5 1839.75,-191.5 1653,-191.5"/>
<text text-anchor="middle" x="1662.88" y="-204.2" font-family="Times New Roman,serif" font-size="14.00"> </text>
<polyline fill="none" stroke="black" points="1672.75,-191.75 1672.75,-227.5"/>
<text text-anchor="middle" x="1715.25" y="-204.2" font-family="Times New Roman,serif" font-size="14.00">data &#45;1.0000</text>
<polyline fill="none" stroke="black" points="1757.75,-191.75 1757.75,-227.5"/>
<text text-anchor="middle" x="1798.75" y="-204.2" font-family="Times New Roman,serif" font-size="14.00">grad 0.1464</text>
</g>
<!-- 1670135617328&#45;&gt;1670135616464+ -->
<g id="edge25" class="edge">
<title>1670135617328&#45;&gt;1670135616464+</title>
<path fill="none" stroke="black" d="M1839.85,-192.73C1848.72,-191.12 1857.31,-189.56 1865.12,-188.14"/>
<polygon fill="black" stroke="black" points="1865.62,-191.61 1874.83,-186.38 1864.37,-184.72 1865.62,-191.61"/>
</g>
<!-- 1670135612240 -->
<g id="node20" class="node">
<title>1670135612240</title>
<polygon fill="none" stroke="black" points="1653,-81.5 1653,-117.5 1839.75,-117.5 1839.75,-81.5 1653,-81.5"/>
<text text-anchor="middle" x="1662.88" y="-94.2" font-family="Times New Roman,serif" font-size="14.00"> </text>
<polyline fill="none" stroke="black" points="1672.75,-81.75 1672.75,-117.5"/>
<text text-anchor="middle" x="1713" y="-94.2" font-family="Times New Roman,serif" font-size="14.00">data 1.0000</text>
<polyline fill="none" stroke="black" points="1753.25,-81.75 1753.25,-117.5"/>
<text text-anchor="middle" x="1796.5" y="-94.2" font-family="Times New Roman,serif" font-size="14.00">grad &#45;0.1036</text>
</g>
<!-- 1670135612240&#45;&gt;1670135615600+ -->
<g id="edge21" class="edge">
<title>1670135612240&#45;&gt;1670135615600+</title>
<path fill="none" stroke="black" d="M1839.85,-115.67C1848.72,-117.22 1857.31,-118.73 1865.12,-120.09"/>
<polygon fill="black" stroke="black" points="1864.38,-123.52 1874.83,-121.79 1865.58,-116.62 1864.38,-123.52"/>
</g>
<!-- 1670135619440 -->
<g id="node21" class="node">
<title>1670135619440</title>
<polygon fill="none" stroke="black" points="2406.75,-112.5 2406.75,-148.5 2589,-148.5 2589,-112.5 2406.75,-112.5"/>
<text text-anchor="middle" x="2416.62" y="-125.2" font-family="Times New Roman,serif" font-size="14.00"> </text>
<polyline fill="none" stroke="black" points="2426.5,-112.75 2426.5,-148.5"/>
<text text-anchor="middle" x="2466.75" y="-125.2" font-family="Times New Roman,serif" font-size="14.00">data 0.1464</text>
<polyline fill="none" stroke="black" points="2507,-112.75 2507,-148.5"/>
<text text-anchor="middle" x="2548" y="-125.2" font-family="Times New Roman,serif" font-size="14.00">grad 4.8284</text>
</g>
<!-- 1670135619440&#45;&gt;1670135627408* -->
<g id="edge11" class="edge">
<title>1670135619440&#45;&gt;1670135627408*</title>
<path fill="none" stroke="black" d="M2589.12,-144.15C2597.88,-145.47 2606.37,-146.75 2614.12,-147.92"/>
<polygon fill="black" stroke="black" points="2613.33,-151.34 2623.74,-149.38 2614.38,-144.42 2613.33,-151.34"/>
</g>
<!-- 1670135619440**&#45;1&#45;&gt;1670135619440 -->
<g id="edge8" class="edge">
<title>1670135619440**&#45;1&#45;&gt;1670135619440</title>
<path fill="none" stroke="black" d="M2307.14,-126.99C2329.34,-127.4 2362.5,-128.01 2394.92,-128.61"/>
<polygon fill="black" stroke="black" points="2394.76,-132.11 2404.83,-128.8 2394.89,-125.11 2394.76,-132.11"/>
</g>
<!-- 1670135627168 -->
<g id="node23" class="node">
<title>1670135627168</title>
<polygon fill="none" stroke="black" points="664.5,-82.5 664.5,-118.5 907.5,-118.5 907.5,-82.5 664.5,-82.5"/>
<text text-anchor="middle" x="702.5" y="-95.2" font-family="Times New Roman,serif" font-size="14.00">x1w1x2w2</text>
<polyline fill="none" stroke="black" points="740.5,-82.75 740.5,-118.5"/>
<text text-anchor="middle" x="783" y="-95.2" font-family="Times New Roman,serif" font-size="14.00">data &#45;6.0000</text>
<polyline fill="none" stroke="black" points="825.5,-82.75 825.5,-118.5"/>
<text text-anchor="middle" x="866.5" y="-95.2" font-family="Times New Roman,serif" font-size="14.00">grad 0.5000</text>
</g>
<!-- 1670135627168&#45;&gt;1670135626256+ -->
<g id="edge26" class="edge">
<title>1670135627168&#45;&gt;1670135626256+</title>
<path fill="none" stroke="black" d="M907.97,-118.4C916.73,-119.69 925.07,-120.93 932.64,-122.05"/>
<polygon fill="black" stroke="black" points="931.92,-125.48 942.32,-123.48 932.94,-118.55 931.92,-125.48"/>
</g>
<!-- 1670135627168+&#45;&gt;1670135627168 -->
<g id="edge9" class="edge">
<title>1670135627168+&#45;&gt;1670135627168</title>
<path fill="none" stroke="black" d="M628.65,-100.5C635.72,-100.5 643.87,-100.5 652.67,-100.5"/>
<polygon fill="black" stroke="black" points="652.62,-104 662.62,-100.5 652.62,-97 652.62,-104"/>
</g>
<!-- 1670135615936 -->
<g id="node25" class="node">
<title>1670135615936</title>
<polygon fill="none" stroke="black" points="2.25,-165.5 2.25,-201.5 197.25,-201.5 197.25,-165.5 2.25,-165.5"/>
<text text-anchor="middle" x="18.5" y="-178.2" font-family="Times New Roman,serif" font-size="14.00">w2</text>
<polyline fill="none" stroke="black" points="34.75,-165.75 34.75,-201.5"/>
<text text-anchor="middle" x="75" y="-178.2" font-family="Times New Roman,serif" font-size="14.00">data 1.0000</text>
<polyline fill="none" stroke="black" points="115.25,-165.75 115.25,-201.5"/>
<text text-anchor="middle" x="156.25" y="-178.2" font-family="Times New Roman,serif" font-size="14.00">grad 0.0000</text>
</g>
<!-- 1670135615936&#45;&gt;1670135612576* -->
<g id="edge19" class="edge">
<title>1670135615936&#45;&gt;1670135612576*</title>
<path fill="none" stroke="black" d="M173.43,-165.03C182.28,-162.37 191.14,-159.51 199.5,-156.5 209.59,-152.87 220.33,-148.29 229.98,-143.89"/>
<polygon fill="black" stroke="black" points="231.37,-147.1 238.95,-139.7 228.41,-140.76 231.37,-147.1"/>
</g>
<!-- 1670135616464 -->
<g id="node26" class="node">
<title>1670135616464</title>
<polygon fill="none" stroke="black" points="2188.5,-163.5 2188.5,-199.5 2370.75,-199.5 2370.75,-163.5 2188.5,-163.5"/>
<text text-anchor="middle" x="2198.38" y="-176.2" font-family="Times New Roman,serif" font-size="14.00"> </text>
<polyline fill="none" stroke="black" points="2208.25,-163.75 2208.25,-199.5"/>
<text text-anchor="middle" x="2248.5" y="-176.2" font-family="Times New Roman,serif" font-size="14.00">data 4.8284</text>
<polyline fill="none" stroke="black" points="2288.75,-163.75 2288.75,-199.5"/>
<text text-anchor="middle" x="2329.75" y="-176.2" font-family="Times New Roman,serif" font-size="14.00">grad 0.1464</text>
</g>
<!-- 1670135616464&#45;&gt;1670135627408* -->
<g id="edge16" class="edge">
<title>1670135616464&#45;&gt;1670135627408*</title>
<path fill="none" stroke="black" d="M2371.04,-174.9C2432.51,-170.38 2515.67,-164.19 2589,-158.5 2596.88,-157.89 2605.33,-157.22 2613.38,-156.57"/>
<polygon fill="black" stroke="black" points="2613.56,-160.07 2623.25,-155.77 2613,-153.09 2613.56,-160.07"/>
</g>
<!-- 1670135616464+&#45;&gt;1670135616464 -->
<g id="edge10" class="edge">
<title>1670135616464+&#45;&gt;1670135616464</title>
<path fill="none" stroke="black" d="M1930.11,-181.5C1980.54,-181.5 2093.09,-181.5 2176.72,-181.5"/>
<polygon fill="black" stroke="black" points="2176.55,-185 2186.55,-181.5 2176.55,-178 2176.55,-185"/>
</g>
<!-- 1670082196976 -->
<g id="node28" class="node">
<title>1670082196976</title>
<polygon fill="none" stroke="black" points="3.75,-110.5 3.75,-146.5 195.75,-146.5 195.75,-110.5 3.75,-110.5"/>
<text text-anchor="middle" x="18.5" y="-123.2" font-family="Times New Roman,serif" font-size="14.00">x2</text>
<polyline fill="none" stroke="black" points="33.25,-110.75 33.25,-146.5"/>
<text text-anchor="middle" x="73.5" y="-123.2" font-family="Times New Roman,serif" font-size="14.00">data 0.0000</text>
<polyline fill="none" stroke="black" points="113.75,-110.75 113.75,-146.5"/>
<text text-anchor="middle" x="154.75" y="-123.2" font-family="Times New Roman,serif" font-size="14.00">grad 0.5000</text>
</g>
<!-- 1670082196976&#45;&gt;1670135612576* -->
<g id="edge18" class="edge">
<title>1670082196976&#45;&gt;1670135612576*</title>
<path fill="none" stroke="black" d="M196.12,-128.5C205.86,-128.5 215.3,-128.5 223.83,-128.5"/>
<polygon fill="black" stroke="black" points="223.71,-132 233.71,-128.5 223.71,-125 223.71,-132"/>
</g>
</g>
</svg>
