<?xml version="1.0" encoding="UTF-8" standalone="no"?>
<!DOCTYPE svg PUBLIC "-//W3C//DTD SVG 1.1//EN"
 "http://www.w3.org/Graphics/SVG/1.1/DTD/svg11.dtd">
<!-- Generated by graphviz version 11.0.0 (20240428.1522)
 -->
<!-- Pages: 1 -->
<svg width="2909pt" height="239pt"
 viewBox="0.00 0.00 2909.00 239.00" xmlns="http://www.w3.org/2000/svg" xmlns:xlink="http://www.w3.org/1999/xlink">
<g id="graph0" class="graph" transform="scale(1 1) rotate(0) translate(4 235)">
<polygon fill="white" stroke="none" points="-4,4 -4,-235 2905,-235 2905,4 -4,4"/>
<!-- 1929316830240 -->
<g id="node1" class="node">
<title>1929316830240</title>
<polygon fill="none" stroke="black" points="2.25,-194.5 2.25,-230.5 197.25,-230.5 197.25,-194.5 2.25,-194.5"/>
<text text-anchor="middle" x="18.5" y="-207.2" font-family="Times New Roman,serif" font-size="14.00">w2</text>
<polyline fill="none" stroke="black" points="34.75,-194.75 34.75,-230.5"/>
<text text-anchor="middle" x="75" y="-207.2" font-family="Times New Roman,serif" font-size="14.00">data 1.0000</text>
<polyline fill="none" stroke="black" points="115.25,-194.75 115.25,-230.5"/>
<text text-anchor="middle" x="156.25" y="-207.2" font-family="Times New Roman,serif" font-size="14.00">grad 0.0000</text>
</g>
<!-- 1929316833888* -->
<g id="node7" class="node">
<title>1929316833888*</title>
<ellipse fill="none" stroke="black" cx="262.5" cy="-157.5" rx="27" ry="18"/>
<text text-anchor="middle" x="262.5" y="-152.07" font-family="Times New Roman,serif" font-size="14.00">*</text>
</g>
<!-- 1929316830240&#45;&gt;1929316833888* -->
<g id="edge17" class="edge">
<title>1929316830240&#45;&gt;1929316833888*</title>
<path fill="none" stroke="black" d="M173.43,-194.03C182.28,-191.37 191.14,-188.51 199.5,-185.5 209.59,-181.87 220.33,-177.29 229.98,-172.89"/>
<polygon fill="black" stroke="black" points="231.37,-176.1 238.95,-168.7 228.41,-169.76 231.37,-176.1"/>
</g>
<!-- 1929315548720 -->
<g id="node2" class="node">
<title>1929315548720</title>
<polygon fill="none" stroke="black" points="1655.25,-55.5 1655.25,-91.5 1837.5,-91.5 1837.5,-55.5 1655.25,-55.5"/>
<text text-anchor="middle" x="1665.12" y="-68.2" font-family="Times New Roman,serif" font-size="14.00"> </text>
<polyline fill="none" stroke="black" points="1675,-55.75 1675,-91.5"/>
<text text-anchor="middle" x="1715.25" y="-68.2" font-family="Times New Roman,serif" font-size="14.00">data 5.8284</text>
<polyline fill="none" stroke="black" points="1755.5,-55.75 1755.5,-91.5"/>
<text text-anchor="middle" x="1796.5" y="-68.2" font-family="Times New Roman,serif" font-size="14.00">grad 0.0429</text>
</g>
<!-- 1929315536432+ -->
<g id="node5" class="node">
<title>1929315536432+</title>
<ellipse fill="none" stroke="black" cx="1902.75" cy="-100.5" rx="27" ry="18"/>
<text text-anchor="middle" x="1902.75" y="-95.08" font-family="Times New Roman,serif" font-size="14.00">+</text>
</g>
<!-- 1929315548720&#45;&gt;1929315536432+ -->
<g id="edge11" class="edge">
<title>1929315548720&#45;&gt;1929315536432+</title>
<path fill="none" stroke="black" d="M1837.62,-89.28C1847.22,-90.96 1856.54,-92.59 1864.96,-94.07"/>
<polygon fill="black" stroke="black" points="1864.27,-97.5 1874.73,-95.77 1865.48,-90.6 1864.27,-97.5"/>
</g>
<!-- 1929315144320+ -->
<g id="node9" class="node">
<title>1929315144320+</title>
<ellipse fill="none" stroke="black" cx="1902.75" cy="-45.5" rx="27" ry="18"/>
<text text-anchor="middle" x="1902.75" y="-40.08" font-family="Times New Roman,serif" font-size="14.00">+</text>
</g>
<!-- 1929315548720&#45;&gt;1929315144320+ -->
<g id="edge18" class="edge">
<title>1929315548720&#45;&gt;1929315144320+</title>
<path fill="none" stroke="black" d="M1837.62,-57.13C1847.22,-55.39 1856.54,-53.7 1864.96,-52.17"/>
<polygon fill="black" stroke="black" points="1865.51,-55.63 1874.73,-50.4 1864.26,-48.74 1865.51,-55.63"/>
</g>
<!-- 1929315548720exp -->
<g id="node3" class="node">
<title>1929315548720exp</title>
<ellipse fill="none" stroke="black" cx="1590" cy="-73.5" rx="27" ry="18"/>
<text text-anchor="middle" x="1590" y="-68.08" font-family="Times New Roman,serif" font-size="14.00">exp</text>
</g>
<!-- 1929315548720exp&#45;&gt;1929315548720 -->
<g id="edge1" class="edge">
<title>1929315548720exp&#45;&gt;1929315548720</title>
<path fill="none" stroke="black" d="M1617.19,-73.5C1624.92,-73.5 1633.88,-73.5 1643.41,-73.5"/>
<polygon fill="black" stroke="black" points="1643.3,-77 1653.3,-73.5 1643.3,-70 1643.3,-77"/>
</g>
<!-- 1929315536432 -->
<g id="node4" class="node">
<title>1929315536432</title>
<polygon fill="none" stroke="black" points="2188.5,-82.5 2188.5,-118.5 2370.75,-118.5 2370.75,-82.5 2188.5,-82.5"/>
<text text-anchor="middle" x="2198.38" y="-95.2" font-family="Times New Roman,serif" font-size="14.00"> </text>
<polyline fill="none" stroke="black" points="2208.25,-82.75 2208.25,-118.5"/>
<text text-anchor="middle" x="2248.5" y="-95.2" font-family="Times New Roman,serif" font-size="14.00">data 4.8284</text>
<polyline fill="none" stroke="black" points="2288.75,-82.75 2288.75,-118.5"/>
<text text-anchor="middle" x="2329.75" y="-95.2" font-family="Times New Roman,serif" font-size="14.00">grad 0.1464</text>
</g>
<!-- 1929315147056* -->
<g id="node21" class="node">
<title>1929315147056*</title>
<ellipse fill="none" stroke="black" cx="2652" cy="-72.5" rx="27" ry="18"/>
<text text-anchor="middle" x="2652" y="-67.08" font-family="Times New Roman,serif" font-size="14.00">*</text>
</g>
<!-- 1929315536432&#45;&gt;1929315147056* -->
<g id="edge19" class="edge">
<title>1929315536432&#45;&gt;1929315147056*</title>
<path fill="none" stroke="black" d="M2371.04,-93.9C2432.51,-89.38 2515.67,-83.19 2589,-77.5 2596.88,-76.89 2605.33,-76.22 2613.38,-75.57"/>
<polygon fill="black" stroke="black" points="2613.56,-79.07 2623.25,-74.77 2613,-72.09 2613.56,-79.07"/>
</g>
<!-- 1929315536432+&#45;&gt;1929315536432 -->
<g id="edge2" class="edge">
<title>1929315536432+&#45;&gt;1929315536432</title>
<path fill="none" stroke="black" d="M1930.11,-100.5C1980.54,-100.5 2093.09,-100.5 2176.72,-100.5"/>
<polygon fill="black" stroke="black" points="2176.55,-104 2186.55,-100.5 2176.55,-97 2176.55,-104"/>
</g>
<!-- 1929316833888 -->
<g id="node6" class="node">
<title>1929316833888</title>
<polygon fill="none" stroke="black" points="327.75,-139.5 327.75,-175.5 536.25,-175.5 536.25,-139.5 327.75,-139.5"/>
<text text-anchor="middle" x="350.75" y="-152.2" font-family="Times New Roman,serif" font-size="14.00">x2w2</text>
<polyline fill="none" stroke="black" points="373.75,-139.75 373.75,-175.5"/>
<text text-anchor="middle" x="414" y="-152.2" font-family="Times New Roman,serif" font-size="14.00">data 0.0000</text>
<polyline fill="none" stroke="black" points="454.25,-139.75 454.25,-175.5"/>
<text text-anchor="middle" x="495.25" y="-152.2" font-family="Times New Roman,serif" font-size="14.00">grad 0.5000</text>
</g>
<!-- 1929316829088+ -->
<g id="node28" class="node">
<title>1929316829088+</title>
<ellipse fill="none" stroke="black" cx="601.5" cy="-129.5" rx="27" ry="18"/>
<text text-anchor="middle" x="601.5" y="-124.08" font-family="Times New Roman,serif" font-size="14.00">+</text>
</g>
<!-- 1929316833888&#45;&gt;1929316829088+ -->
<g id="edge26" class="edge">
<title>1929316833888&#45;&gt;1929316829088+</title>
<path fill="none" stroke="black" d="M536.7,-140.17C546.14,-138.59 555.22,-137.07 563.43,-135.7"/>
<polygon fill="black" stroke="black" points="563.98,-139.15 573.27,-134.05 562.83,-132.25 563.98,-139.15"/>
</g>
<!-- 1929316833888*&#45;&gt;1929316833888 -->
<g id="edge3" class="edge">
<title>1929316833888*&#45;&gt;1929316833888</title>
<path fill="none" stroke="black" d="M289.67,-157.5C297.34,-157.5 306.26,-157.5 315.82,-157.5"/>
<polygon fill="black" stroke="black" points="315.79,-161 325.79,-157.5 315.79,-154 315.79,-161"/>
</g>
<!-- 1929315144320 -->
<g id="node8" class="node">
<title>1929315144320</title>
<polygon fill="none" stroke="black" points="1965.75,-27.5 1965.75,-63.5 2152.5,-63.5 2152.5,-27.5 1965.75,-27.5"/>
<text text-anchor="middle" x="1975.62" y="-40.2" font-family="Times New Roman,serif" font-size="14.00"> </text>
<polyline fill="none" stroke="black" points="1985.5,-27.75 1985.5,-63.5"/>
<text text-anchor="middle" x="2025.75" y="-40.2" font-family="Times New Roman,serif" font-size="14.00">data 6.8284</text>
<polyline fill="none" stroke="black" points="2066,-27.75 2066,-63.5"/>
<text text-anchor="middle" x="2109.25" y="-40.2" font-family="Times New Roman,serif" font-size="14.00">grad &#45;0.1036</text>
</g>
<!-- 1929315148976**&#45;1 -->
<g id="node14" class="node">
<title>1929315148976**&#45;1</title>
<ellipse fill="none" stroke="black" cx="2279.62" cy="-45.5" rx="27.11" ry="18"/>
<text text-anchor="middle" x="2279.62" y="-40.08" font-family="Times New Roman,serif" font-size="14.00">**&#45;1</text>
</g>
<!-- 1929315144320&#45;&gt;1929315148976**&#45;1 -->
<g id="edge24" class="edge">
<title>1929315144320&#45;&gt;1929315148976**&#45;1</title>
<path fill="none" stroke="black" d="M2152.79,-45.5C2183.78,-45.5 2216.58,-45.5 2240.93,-45.5"/>
<polygon fill="black" stroke="black" points="2240.64,-49 2250.64,-45.5 2240.64,-42 2240.64,-49"/>
</g>
<!-- 1929315144320+&#45;&gt;1929315144320 -->
<g id="edge4" class="edge">
<title>1929315144320+&#45;&gt;1929315144320</title>
<path fill="none" stroke="black" d="M1929.94,-45.5C1937.07,-45.5 1945.27,-45.5 1953.98,-45.5"/>
<polygon fill="black" stroke="black" points="1953.75,-49 1963.75,-45.5 1953.75,-42 1953.75,-49"/>
</g>
<!-- 1929315548816 -->
<g id="node10" class="node">
<title>1929315548816</title>
<polygon fill="none" stroke="black" points="1344.75,-55.5 1344.75,-91.5 1527,-91.5 1527,-55.5 1344.75,-55.5"/>
<text text-anchor="middle" x="1354.62" y="-68.2" font-family="Times New Roman,serif" font-size="14.00"> </text>
<polyline fill="none" stroke="black" points="1364.5,-55.75 1364.5,-91.5"/>
<text text-anchor="middle" x="1404.75" y="-68.2" font-family="Times New Roman,serif" font-size="14.00">data 1.7627</text>
<polyline fill="none" stroke="black" points="1445,-55.75 1445,-91.5"/>
<text text-anchor="middle" x="1486" y="-68.2" font-family="Times New Roman,serif" font-size="14.00">grad 0.2500</text>
</g>
<!-- 1929315548816&#45;&gt;1929315548720exp -->
<g id="edge14" class="edge">
<title>1929315548816&#45;&gt;1929315548720exp</title>
<path fill="none" stroke="black" d="M1527.12,-73.5C1535.51,-73.5 1543.65,-73.5 1551.12,-73.5"/>
<polygon fill="black" stroke="black" points="1551.12,-77 1561.12,-73.5 1551.12,-70 1551.12,-77"/>
</g>
<!-- 1929315548816* -->
<g id="node11" class="node">
<title>1929315548816*</title>
<ellipse fill="none" stroke="black" cx="1281.75" cy="-73.5" rx="27" ry="18"/>
<text text-anchor="middle" x="1281.75" y="-68.08" font-family="Times New Roman,serif" font-size="14.00">*</text>
</g>
<!-- 1929315548816*&#45;&gt;1929315548816 -->
<g id="edge5" class="edge">
<title>1929315548816*&#45;&gt;1929315548816</title>
<path fill="none" stroke="black" d="M1309.25,-73.5C1316.29,-73.5 1324.34,-73.5 1332.88,-73.5"/>
<polygon fill="black" stroke="black" points="1332.84,-77 1342.84,-73.5 1332.84,-70 1332.84,-77"/>
</g>
<!-- 1929316831392 -->
<g id="node12" class="node">
<title>1929316831392</title>
<polygon fill="none" stroke="black" points="3.75,-139.5 3.75,-175.5 195.75,-175.5 195.75,-139.5 3.75,-139.5"/>
<text text-anchor="middle" x="18.5" y="-152.2" font-family="Times New Roman,serif" font-size="14.00">x2</text>
<polyline fill="none" stroke="black" points="33.25,-139.75 33.25,-175.5"/>
<text text-anchor="middle" x="73.5" y="-152.2" font-family="Times New Roman,serif" font-size="14.00">data 0.0000</text>
<polyline fill="none" stroke="black" points="113.75,-139.75 113.75,-175.5"/>
<text text-anchor="middle" x="154.75" y="-152.2" font-family="Times New Roman,serif" font-size="14.00">grad 0.5000</text>
</g>
<!-- 1929316831392&#45;&gt;1929316833888* -->
<g id="edge13" class="edge">
<title>1929316831392&#45;&gt;1929316833888*</title>
<path fill="none" stroke="black" d="M196.12,-157.5C205.86,-157.5 215.3,-157.5 223.83,-157.5"/>
<polygon fill="black" stroke="black" points="223.71,-161 233.71,-157.5 223.71,-154 223.71,-161"/>
</g>
<!-- 1929315148976 -->
<g id="node13" class="node">
<title>1929315148976</title>
<polygon fill="none" stroke="black" points="2406.75,-31.5 2406.75,-67.5 2589,-67.5 2589,-31.5 2406.75,-31.5"/>
<text text-anchor="middle" x="2416.62" y="-44.2" font-family="Times New Roman,serif" font-size="14.00"> </text>
<polyline fill="none" stroke="black" points="2426.5,-31.75 2426.5,-67.5"/>
<text text-anchor="middle" x="2466.75" y="-44.2" font-family="Times New Roman,serif" font-size="14.00">data 0.1464</text>
<polyline fill="none" stroke="black" points="2507,-31.75 2507,-67.5"/>
<text text-anchor="middle" x="2548" y="-44.2" font-family="Times New Roman,serif" font-size="14.00">grad 4.8284</text>
</g>
<!-- 1929315148976&#45;&gt;1929315147056* -->
<g id="edge22" class="edge">
<title>1929315148976&#45;&gt;1929315147056*</title>
<path fill="none" stroke="black" d="M2589.12,-63.15C2597.88,-64.47 2606.37,-65.75 2614.12,-66.92"/>
<polygon fill="black" stroke="black" points="2613.33,-70.34 2623.74,-68.38 2614.38,-63.42 2613.33,-70.34"/>
</g>
<!-- 1929315148976**&#45;1&#45;&gt;1929315148976 -->
<g id="edge6" class="edge">
<title>1929315148976**&#45;1&#45;&gt;1929315148976</title>
<path fill="none" stroke="black" d="M2307.14,-45.99C2329.34,-46.4 2362.5,-47.01 2394.92,-47.61"/>
<polygon fill="black" stroke="black" points="2394.76,-51.11 2404.83,-47.8 2394.89,-44.11 2394.76,-51.11"/>
</g>
<!-- 1929316839600 -->
<g id="node15" class="node">
<title>1929316839600</title>
<polygon fill="none" stroke="black" points="0,-84.5 0,-120.5 199.5,-120.5 199.5,-84.5 0,-84.5"/>
<text text-anchor="middle" x="16.25" y="-97.2" font-family="Times New Roman,serif" font-size="14.00">w1</text>
<polyline fill="none" stroke="black" points="32.5,-84.75 32.5,-120.5"/>
<text text-anchor="middle" x="75" y="-97.2" font-family="Times New Roman,serif" font-size="14.00">data &#45;3.0000</text>
<polyline fill="none" stroke="black" points="117.5,-84.75 117.5,-120.5"/>
<text text-anchor="middle" x="158.5" y="-97.2" font-family="Times New Roman,serif" font-size="14.00">grad 1.0000</text>
</g>
<!-- 1929316834608* -->
<g id="node23" class="node">
<title>1929316834608*</title>
<ellipse fill="none" stroke="black" cx="262.5" cy="-102.5" rx="27" ry="18"/>
<text text-anchor="middle" x="262.5" y="-97.08" font-family="Times New Roman,serif" font-size="14.00">*</text>
</g>
<!-- 1929316839600&#45;&gt;1929316834608* -->
<g id="edge12" class="edge">
<title>1929316839600&#45;&gt;1929316834608*</title>
<path fill="none" stroke="black" d="M199.81,-102.5C208.19,-102.5 216.28,-102.5 223.69,-102.5"/>
<polygon fill="black" stroke="black" points="223.58,-106 233.58,-102.5 223.58,-99 223.58,-106"/>
</g>
<!-- 1929316834992 -->
<g id="node16" class="node">
<title>1929316834992</title>
<polygon fill="none" stroke="black" points="693,-56.5 693,-92.5 879,-92.5 879,-56.5 693,-56.5"/>
<text text-anchor="middle" x="704.75" y="-69.2" font-family="Times New Roman,serif" font-size="14.00">b</text>
<polyline fill="none" stroke="black" points="716.5,-56.75 716.5,-92.5"/>
<text text-anchor="middle" x="756.75" y="-69.2" font-family="Times New Roman,serif" font-size="14.00">data 6.8814</text>
<polyline fill="none" stroke="black" points="797,-56.75 797,-92.5"/>
<text text-anchor="middle" x="838" y="-69.2" font-family="Times New Roman,serif" font-size="14.00">grad 0.5000</text>
</g>
<!-- 1929318385376+ -->
<g id="node18" class="node">
<title>1929318385376+</title>
<ellipse fill="none" stroke="black" cx="970.5" cy="-101.5" rx="27" ry="18"/>
<text text-anchor="middle" x="970.5" y="-96.08" font-family="Times New Roman,serif" font-size="14.00">+</text>
</g>
<!-- 1929316834992&#45;&gt;1929318385376+ -->
<g id="edge23" class="edge">
<title>1929316834992&#45;&gt;1929318385376+</title>
<path fill="none" stroke="black" d="M879.32,-88.16C898.2,-90.95 917.02,-93.74 932.55,-96.03"/>
<polygon fill="black" stroke="black" points="931.82,-99.46 942.22,-97.46 932.84,-92.54 931.82,-99.46"/>
</g>
<!-- 1929318385376 -->
<g id="node17" class="node">
<title>1929318385376</title>
<polygon fill="none" stroke="black" points="1033.5,-83.5 1033.5,-119.5 1218.75,-119.5 1218.75,-83.5 1033.5,-83.5"/>
<text text-anchor="middle" x="1044.88" y="-96.2" font-family="Times New Roman,serif" font-size="14.00">n</text>
<polyline fill="none" stroke="black" points="1056.25,-83.75 1056.25,-119.5"/>
<text text-anchor="middle" x="1096.5" y="-96.2" font-family="Times New Roman,serif" font-size="14.00">data 0.8814</text>
<polyline fill="none" stroke="black" points="1136.75,-83.75 1136.75,-119.5"/>
<text text-anchor="middle" x="1177.75" y="-96.2" font-family="Times New Roman,serif" font-size="14.00">grad 0.5000</text>
</g>
<!-- 1929318385376&#45;&gt;1929315548816* -->
<g id="edge25" class="edge">
<title>1929318385376&#45;&gt;1929315548816*</title>
<path fill="none" stroke="black" d="M1219.15,-84.73C1227.89,-83.13 1236.36,-81.59 1244.08,-80.18"/>
<polygon fill="black" stroke="black" points="1244.45,-83.67 1253.66,-78.44 1243.19,-76.79 1244.45,-83.67"/>
</g>
<!-- 1929318385376+&#45;&gt;1929318385376 -->
<g id="edge7" class="edge">
<title>1929318385376+&#45;&gt;1929318385376</title>
<path fill="none" stroke="black" d="M997.91,-101.5C1004.95,-101.5 1013,-101.5 1021.55,-101.5"/>
<polygon fill="black" stroke="black" points="1021.54,-105 1031.54,-101.5 1021.54,-98 1021.54,-105"/>
</g>
<!-- 1929315144896 -->
<g id="node19" class="node">
<title>1929315144896</title>
<polygon fill="none" stroke="black" points="1653,-0.5 1653,-36.5 1839.75,-36.5 1839.75,-0.5 1653,-0.5"/>
<text text-anchor="middle" x="1662.88" y="-13.2" font-family="Times New Roman,serif" font-size="14.00"> </text>
<polyline fill="none" stroke="black" points="1672.75,-0.75 1672.75,-36.5"/>
<text text-anchor="middle" x="1713" y="-13.2" font-family="Times New Roman,serif" font-size="14.00">data 1.0000</text>
<polyline fill="none" stroke="black" points="1753.25,-0.75 1753.25,-36.5"/>
<text text-anchor="middle" x="1796.5" y="-13.2" font-family="Times New Roman,serif" font-size="14.00">grad &#45;0.1036</text>
</g>
<!-- 1929315144896&#45;&gt;1929315144320+ -->
<g id="edge20" class="edge">
<title>1929315144896&#45;&gt;1929315144320+</title>
<path fill="none" stroke="black" d="M1839.85,-34.67C1848.72,-36.22 1857.31,-37.73 1865.12,-39.09"/>
<polygon fill="black" stroke="black" points="1864.38,-42.52 1874.83,-40.79 1865.58,-35.62 1864.38,-42.52"/>
</g>
<!-- 1929315147056 -->
<g id="node20" class="node">
<title>1929315147056</title>
<polygon fill="none" stroke="black" points="2715,-54.5 2715,-90.5 2901,-90.5 2901,-54.5 2715,-54.5"/>
<text text-anchor="middle" x="2726.75" y="-67.2" font-family="Times New Roman,serif" font-size="14.00">o</text>
<polyline fill="none" stroke="black" points="2738.5,-54.75 2738.5,-90.5"/>
<text text-anchor="middle" x="2778.75" y="-67.2" font-family="Times New Roman,serif" font-size="14.00">data 0.7071</text>
<polyline fill="none" stroke="black" points="2819,-54.75 2819,-90.5"/>
<text text-anchor="middle" x="2860" y="-67.2" font-family="Times New Roman,serif" font-size="14.00">grad 1.0000</text>
</g>
<!-- 1929315147056*&#45;&gt;1929315147056 -->
<g id="edge8" class="edge">
<title>1929315147056*&#45;&gt;1929315147056</title>
<path fill="none" stroke="black" d="M2679.47,-72.5C2686.61,-72.5 2694.78,-72.5 2703.46,-72.5"/>
<polygon fill="black" stroke="black" points="2703.19,-76 2713.19,-72.5 2703.19,-69 2703.19,-76"/>
</g>
<!-- 1929316834608 -->
<g id="node22" class="node">
<title>1929316834608</title>
<polygon fill="none" stroke="black" points="325.5,-84.5 325.5,-120.5 538.5,-120.5 538.5,-84.5 325.5,-84.5"/>
<text text-anchor="middle" x="348.5" y="-97.2" font-family="Times New Roman,serif" font-size="14.00">x1w1</text>
<polyline fill="none" stroke="black" points="371.5,-84.75 371.5,-120.5"/>
<text text-anchor="middle" x="414" y="-97.2" font-family="Times New Roman,serif" font-size="14.00">data &#45;6.0000</text>
<polyline fill="none" stroke="black" points="456.5,-84.75 456.5,-120.5"/>
<text text-anchor="middle" x="497.5" y="-97.2" font-family="Times New Roman,serif" font-size="14.00">grad 0.5000</text>
</g>
<!-- 1929316834608&#45;&gt;1929316829088+ -->
<g id="edge28" class="edge">
<title>1929316834608&#45;&gt;1929316829088+</title>
<path fill="none" stroke="black" d="M538.61,-119.52C547.35,-120.93 555.75,-122.29 563.4,-123.52"/>
<polygon fill="black" stroke="black" points="562.8,-126.97 573.23,-125.1 563.91,-120.06 562.8,-126.97"/>
</g>
<!-- 1929316834608*&#45;&gt;1929316834608 -->
<g id="edge9" class="edge">
<title>1929316834608*&#45;&gt;1929316834608</title>
<path fill="none" stroke="black" d="M289.67,-102.5C296.79,-102.5 304.98,-102.5 313.76,-102.5"/>
<polygon fill="black" stroke="black" points="313.64,-106 323.64,-102.5 313.64,-99 313.64,-106"/>
</g>
<!-- 1929316827984 -->
<g id="node24" class="node">
<title>1929316827984</title>
<polygon fill="none" stroke="black" points="1.5,-29.5 1.5,-65.5 198,-65.5 198,-29.5 1.5,-29.5"/>
<text text-anchor="middle" x="16.25" y="-42.2" font-family="Times New Roman,serif" font-size="14.00">x1</text>
<polyline fill="none" stroke="black" points="31,-29.75 31,-65.5"/>
<text text-anchor="middle" x="71.25" y="-42.2" font-family="Times New Roman,serif" font-size="14.00">data 2.0000</text>
<polyline fill="none" stroke="black" points="111.5,-29.75 111.5,-65.5"/>
<text text-anchor="middle" x="154.75" y="-42.2" font-family="Times New Roman,serif" font-size="14.00">grad &#45;1.5000</text>
</g>
<!-- 1929316827984&#45;&gt;1929316834608* -->
<g id="edge16" class="edge">
<title>1929316827984&#45;&gt;1929316834608*</title>
<path fill="none" stroke="black" d="M170.45,-65.99C180.27,-68.97 190.19,-72.17 199.5,-75.5 209.46,-79.06 220.09,-83.46 229.68,-87.67"/>
<polygon fill="black" stroke="black" points="228.04,-90.77 238.6,-91.66 230.9,-84.38 228.04,-90.77"/>
</g>
<!-- 1929315538784 -->
<g id="node25" class="node">
<title>1929315538784</title>
<polygon fill="none" stroke="black" points="1035,-28.5 1035,-64.5 1217.25,-64.5 1217.25,-28.5 1035,-28.5"/>
<text text-anchor="middle" x="1044.88" y="-41.2" font-family="Times New Roman,serif" font-size="14.00"> </text>
<polyline fill="none" stroke="black" points="1054.75,-28.75 1054.75,-64.5"/>
<text text-anchor="middle" x="1095" y="-41.2" font-family="Times New Roman,serif" font-size="14.00">data 2.0000</text>
<polyline fill="none" stroke="black" points="1135.25,-28.75 1135.25,-64.5"/>
<text text-anchor="middle" x="1176.25" y="-41.2" font-family="Times New Roman,serif" font-size="14.00">grad 0.2203</text>
</g>
<!-- 1929315538784&#45;&gt;1929315548816* -->
<g id="edge15" class="edge">
<title>1929315538784&#45;&gt;1929315548816*</title>
<path fill="none" stroke="black" d="M1217.38,-62.36C1226.68,-64 1235.71,-65.58 1243.9,-67.02"/>
<polygon fill="black" stroke="black" points="1243.29,-70.47 1253.75,-68.75 1244.5,-63.58 1243.29,-70.47"/>
</g>
<!-- 1929315545936 -->
<g id="node26" class="node">
<title>1929315545936</title>
<polygon fill="none" stroke="black" points="1653,-110.5 1653,-146.5 1839.75,-146.5 1839.75,-110.5 1653,-110.5"/>
<text text-anchor="middle" x="1662.88" y="-123.2" font-family="Times New Roman,serif" font-size="14.00"> </text>
<polyline fill="none" stroke="black" points="1672.75,-110.75 1672.75,-146.5"/>
<text text-anchor="middle" x="1715.25" y="-123.2" font-family="Times New Roman,serif" font-size="14.00">data &#45;1.0000</text>
<polyline fill="none" stroke="black" points="1757.75,-110.75 1757.75,-146.5"/>
<text text-anchor="middle" x="1798.75" y="-123.2" font-family="Times New Roman,serif" font-size="14.00">grad 0.1464</text>
</g>
<!-- 1929315545936&#45;&gt;1929315536432+ -->
<g id="edge21" class="edge">
<title>1929315545936&#45;&gt;1929315536432+</title>
<path fill="none" stroke="black" d="M1839.85,-111.73C1848.72,-110.12 1857.31,-108.56 1865.12,-107.14"/>
<polygon fill="black" stroke="black" points="1865.62,-110.61 1874.83,-105.38 1864.37,-103.72 1865.62,-110.61"/>
</g>
<!-- 1929316829088 -->
<g id="node27" class="node">
<title>1929316829088</title>
<polygon fill="none" stroke="black" points="664.5,-111.5 664.5,-147.5 907.5,-147.5 907.5,-111.5 664.5,-111.5"/>
<text text-anchor="middle" x="702.5" y="-124.2" font-family="Times New Roman,serif" font-size="14.00">x1w1x2w2</text>
<polyline fill="none" stroke="black" points="740.5,-111.75 740.5,-147.5"/>
<text text-anchor="middle" x="783" y="-124.2" font-family="Times New Roman,serif" font-size="14.00">data &#45;6.0000</text>
<polyline fill="none" stroke="black" points="825.5,-111.75 825.5,-147.5"/>
<text text-anchor="middle" x="866.5" y="-124.2" font-family="Times New Roman,serif" font-size="14.00">grad 0.5000</text>
</g>
<!-- 1929316829088&#45;&gt;1929318385376+ -->
<g id="edge27" class="edge">
<title>1929316829088&#45;&gt;1929318385376+</title>
<path fill="none" stroke="black" d="M907.46,-111.02C916.36,-109.65 924.85,-108.35 932.54,-107.17"/>
<polygon fill="black" stroke="black" points="933.04,-110.64 942.39,-105.66 931.98,-103.72 933.04,-110.64"/>
</g>
<!-- 1929316829088+&#45;&gt;1929316829088 -->
<g id="edge10" class="edge">
<title>1929316829088+&#45;&gt;1929316829088</title>
<path fill="none" stroke="black" d="M628.65,-129.5C635.72,-129.5 643.87,-129.5 652.67,-129.5"/>
<polygon fill="black" stroke="black" points="652.62,-133 662.62,-129.5 652.62,-126 652.62,-133"/>
</g>
</g>
</svg>
